<svg width="26" height="24" viewBox="0 0 26 24" fill="none" xmlns="http://www.w3.org/2000/svg">
<path d="M1.81003 0H23.267C24.2667 0 25.077 0.810365 25.077 1.81V1.811C25.077 2.81064 24.2667 3.621 23.267 3.621H1.81003C0.81039 3.621 2.67029e-05 2.81064 2.67029e-05 1.811V1.81C2.67029e-05 0.810365 0.81039 0 1.81003 0Z" fill="white"/>
<path d="M6.06403 10H23.267C24.2667 10 25.077 10.8104 25.077 11.81V11.811C25.077 12.8106 24.2667 13.621 23.267 13.621H6.06403C5.06439 13.621 4.25403 12.8106 4.25403 11.811V11.81C4.25403 10.8104 5.06439 10 6.06403 10Z" fill="white"/>
<path d="M12.173 20.292H23.33C24.3297 20.292 25.14 21.1024 25.14 22.102V22.103C25.14 23.1026 24.3297 23.913 23.33 23.913H12.173C11.1734 23.913 10.363 23.1026 10.363 22.103V22.102C10.363 21.1024 11.1734 20.292 12.173 20.292Z" fill="white"/>
</svg>
