<svg width="36" height="36" viewBox="0 0 36 36" fill="none" xmlns="http://www.w3.org/2000/svg">
<path fill-rule="evenodd" clip-rule="evenodd" d="M1.5 18C1.5 27.1127 8.8873 34.5 18 34.5C27.1127 34.5 34.5 27.1127 34.5 18C34.5 8.8873 27.1127 1.5 18 1.5C8.8873 1.5 1.5 8.8873 1.5 18ZM31.5 18C31.5 25.4558 25.4559 31.5 18 31.5C10.5442 31.5 4.50002 25.4558 4.50002 18C4.50002 10.5441 10.5442 4.49999 18 4.49999C25.4559 4.49999 31.5 10.5441 31.5 18ZM19.5054 20.9975H21.0044V23.9975H15.0044V20.9975H16.5044V17.9975H15.0044V14.9975H19.5054V20.9975ZM19.501 11.9975C19.501 12.826 18.8293 13.4975 18.0006 13.4975C17.1719 13.4975 16.5001 12.826 16.5001 11.9975C16.5001 11.1691 17.1719 10.4975 18.0006 10.4975C18.8293 10.4975 19.501 11.1691 19.501 11.9975Z" fill="#1D1D1D"/>
</svg>
