<svg width="28" height="27" viewBox="0 0 28 27" fill="none" xmlns="http://www.w3.org/2000/svg">
<path d="M14 27C6.63599 27 0.666992 21.03 0.666992 13.667C0.666992 6.30398 6.63699 0.333984 14 0.333984C21.364 0.333984 27.333 6.30398 27.333 13.667C27.325 21.027 21.36 26.992 14 27H13.999H14ZM14 2.99998C8.10899 2.99998 3.33299 7.77598 3.33299 13.667C3.33299 19.558 8.10899 24.334 14 24.334C19.891 24.334 24.667 19.558 24.667 13.667C24.66 7.77898 19.889 3.00698 14.001 2.99998H14ZM15.333 13.667V8.33398C15.333 7.59798 14.736 7.00098 14 7.00098C13.264 7.00098 12.667 7.59798 12.667 8.33398V13.667C12.667 14.403 13.264 15 14 15C14.736 15 15.333 14.403 15.333 13.667ZM14.267 20.307C14.357 20.291 14.438 20.263 14.512 20.225L14.507 20.227C14.599 20.195 14.678 20.154 14.75 20.105L14.747 20.107C14.814 20.054 14.88 20 14.947 19.947C15 19.88 15.054 19.814 15.107 19.747C15.154 19.678 15.195 19.599 15.225 19.514L15.227 19.507C15.263 19.438 15.291 19.357 15.306 19.272L15.307 19.267C15.321 19.189 15.33 19.097 15.334 19.004V19C15.331 18.904 15.322 18.812 15.306 18.722L15.308 18.733C15.292 18.643 15.264 18.562 15.226 18.488L15.228 18.493C15.196 18.401 15.155 18.322 15.106 18.249L15.108 18.252C15.055 18.185 15.001 18.119 14.948 18.052C14.881 17.999 14.815 17.945 14.748 17.892C14.679 17.845 14.6 17.804 14.515 17.774L14.508 17.772C14.439 17.736 14.358 17.708 14.273 17.693L14.268 17.692C14.19 17.675 14.099 17.665 14.007 17.665C13.822 17.665 13.646 17.704 13.487 17.775L13.495 17.772C13.326 17.844 13.18 17.938 13.054 18.053L13.055 18.052C13.002 18.119 12.948 18.185 12.895 18.252C12.848 18.321 12.807 18.4 12.777 18.485L12.775 18.492C12.739 18.561 12.711 18.642 12.696 18.727L12.695 18.732C12.68 18.811 12.671 18.903 12.668 18.997V18.999C12.671 19.096 12.681 19.188 12.696 19.277L12.694 19.265C12.71 19.355 12.738 19.436 12.776 19.51L12.774 19.505C12.806 19.597 12.846 19.676 12.896 19.748L12.894 19.745C12.947 19.812 13.001 19.878 13.054 19.945C13.3 20.18 13.633 20.326 14 20.332H14.001C14.098 20.329 14.19 20.319 14.28 20.304L14.268 20.306L14.267 20.307Z" fill="#FF9F9F"/>
</svg>
