<svg width="64" height="32" viewBox="0 0 64 32" fill="none" xmlns="http://www.w3.org/2000/svg">
<path d="M32.0005 0C14.3275 0 0.000488281 7.16357 0.000488281 15.9999C0.000488281 24.8364 14.3275 31.9999 32.0005 31.9999C49.6735 31.9999 64.0005 24.8363 64.0005 15.9999C64.0005 7.16344 49.6735 0 32.0005 0ZM32.0005 29.4739C15.7225 29.4739 2.52655 23.4415 2.52655 15.9999C2.52655 8.55841 15.7226 2.52593 32.0005 2.52593C48.2785 2.52593 61.4744 8.55841 61.4744 15.9999C61.4744 23.4415 48.2784 29.4739 32.0005 29.4739ZM27.9649 13.1929V10.6665H36.9925V13.1929H33.7424V21.3334H31.2155V13.1929H27.9649ZM47.8894 10.6665V21.3335H45.3634L40.7819 14.9835V21.3335H38.2558V10.6665H40.7818L45.3633 17.0165V10.6665H47.8894ZM16.0364 21.3335V10.6665H18.5624L21.3689 14.9835L24.1754 10.6665H26.7004V21.3335H24.1754V15.3L22.2594 18.2451H20.4784L18.5624 15.3V21.3335H16.0364Z" fill="#1D1D1D"/>
</svg>
