<svg width="16" height="16" viewBox="0 0 16 16" fill="none" xmlns="http://www.w3.org/2000/svg">
<path fill-rule="evenodd" clip-rule="evenodd" d="M0.666687 7.99984C0.666687 12.0499 3.94993 15.3332 8.00002 15.3332C12.0501 15.3332 15.3334 12.0499 15.3334 7.99984C15.3334 3.94975 12.0501 0.666504 8.00002 0.666504C3.94993 0.666504 0.666687 3.94975 0.666687 7.99984ZM14 7.99984C14 11.3135 11.3137 13.9998 8.00002 13.9998C4.68631 13.9998 2.00002 11.3135 2.00002 7.99984C2.00002 4.68613 4.68631 1.99984 8.00002 1.99984C11.3137 1.99984 14 4.68613 14 7.99984ZM8.00024 11.3321C8.36855 11.3321 8.66713 11.0336 8.66713 10.6654C8.66713 10.2972 8.36855 9.99873 8.00024 9.99873C7.63193 9.99873 7.33335 10.2972 7.33335 10.6654C7.33335 11.0336 7.63193 11.3321 8.00024 11.3321ZM7.33335 9.33317H8.66669C8.66669 8.80093 8.7503 8.70339 9.29816 8.42946C10.2503 7.95339 10.6667 7.4676 10.6667 6.33317C10.6667 4.88026 9.52292 3.99984 8.00002 3.99984C6.52726 3.99984 5.33335 5.19374 5.33335 6.6665H6.66669C6.66669 5.93012 7.26364 5.33317 8.00002 5.33317C8.85146 5.33317 9.33335 5.70411 9.33335 6.33317C9.33335 6.86541 9.24974 6.96295 8.70188 7.23689C7.74974 7.71295 7.33335 8.19874 7.33335 9.33317Z" fill="#E5B910"/>
</svg>
