<svg width="80" height="80" viewBox="0 0 80 80" fill="none" xmlns="http://www.w3.org/2000/svg">
<path fill-rule="evenodd" clip-rule="evenodd" d="M21.3343 7.27491C24.5506 7.01812 27.6039 5.75306 30.0593 3.65991C32.8326 1.29786 36.3564 0.000610352 39.9993 0.000610352C43.6422 0.000610352 47.166 1.29786 49.9393 3.65991C52.3947 5.75306 55.448 7.01812 58.6643 7.27491C62.2965 7.56519 65.7065 9.13972 68.283 11.7162C70.8595 14.2927 72.434 17.7028 72.7243 21.3349C72.9793 24.5499 74.2443 27.6049 76.3393 30.0599C78.7013 32.8332 79.9986 36.357 79.9986 39.9999C79.9986 43.6428 78.7013 47.1666 76.3393 49.9399C74.2461 52.3953 72.9811 55.4486 72.7243 58.6649C72.434 62.2971 70.8595 65.7071 68.283 68.2836C65.7065 70.8601 62.2965 72.4346 58.6643 72.7249C55.448 72.9817 52.3947 74.2467 49.9393 76.3399C47.166 78.702 43.6422 79.9992 39.9993 79.9992C36.3564 79.9992 32.8326 78.702 30.0593 76.3399C27.6039 74.2467 24.5506 72.9817 21.3343 72.7249C17.7021 72.4346 14.2921 70.8601 11.7156 68.2836C9.13911 65.7071 7.56458 62.2971 7.2743 58.6649C7.0175 55.4486 5.75245 52.3953 3.6593 49.9399C1.29725 47.1666 0 43.6428 0 39.9999C0 36.357 1.29725 32.8332 3.6593 30.0599C5.75245 27.6045 7.0175 24.5512 7.2743 21.3349C7.56458 17.7028 9.13911 14.2927 11.7156 11.7162C14.2921 9.13972 17.7021 7.56519 21.3343 7.27491ZM58.5343 33.5349C59.4451 32.5919 59.9491 31.3289 59.9377 30.0179C59.9263 28.7069 59.4004 27.4529 58.4734 26.5258C57.5464 25.5988 56.2923 25.0729 54.9813 25.0615C53.6703 25.0501 52.4073 25.5541 51.4643 26.4649L34.9993 42.9299L28.5343 36.4649C27.5913 35.5541 26.3283 35.0501 25.0173 35.0615C23.7063 35.0729 22.4522 35.5988 21.5252 36.5258C20.5982 37.4529 20.0723 38.7069 20.0609 40.0179C20.0495 41.3289 20.5535 42.5919 21.4643 43.5349L31.4643 53.5349C32.4019 54.4723 33.6735 54.9988 34.9993 54.9988C36.3251 54.9988 37.5967 54.4723 38.5343 53.5349L58.5343 33.5349Z" fill="#1D1D1D"/>
</svg>
