<svg width="24" height="24" viewBox="0 0 24 24" fill="none" xmlns="http://www.w3.org/2000/svg">
<path fill-rule="evenodd" clip-rule="evenodd" d="M11.76 4.08001C7.38558 4.08001 3.84002 7.62557 3.84002 12C3.84002 16.3736 7.38564 19.92 11.76 19.92C16.1345 19.92 19.68 16.3736 19.68 12C19.68 7.62557 16.1345 4.08001 11.76 4.08001ZM2.40002 12C2.40002 6.83029 6.5903 2.64001 11.76 2.64001C16.9297 2.64001 21.12 6.83029 21.12 12C21.12 17.1688 16.9298 21.36 11.76 21.36C6.59024 21.36 2.40002 17.1688 2.40002 12Z" fill="#00C087"/>
<path fill-rule="evenodd" clip-rule="evenodd" d="M15.5934 9.27461C15.8745 9.55578 15.8745 10.0117 15.5934 10.2928L11.1603 14.7259C10.8792 15.007 10.4234 15.0071 10.1422 14.726L7.92474 12.5094C7.6435 12.2284 7.6434 11.7725 7.92452 11.4913C8.20565 11.21 8.66152 11.2099 8.94275 11.491L10.6511 13.1986L14.5751 9.27461C14.8563 8.99342 15.3122 8.99342 15.5934 9.27461Z" fill="#00C087"/>
</svg>
