<svg width="36" height="38" viewBox="0 0 36 38" fill="none" xmlns="http://www.w3.org/2000/svg">
<path d="M3.60001 23.8V22.5H2.30001V23.8H3.60001ZM32.4 23.8H33.7V22.5H32.4V23.8ZM32.4 35.8V37.1H33.7V35.8H32.4ZM3.60001 35.8H2.30001V37.1H3.60001V35.8ZM7.80292 15.8508C10.5574 12.5118 14.2337 10.7 18.0001 10.7V8.1C13.3649 8.1 8.98363 10.3339 5.7973 14.1963L7.80292 15.8508ZM18.0001 10.7C21.7666 10.7 25.4428 12.5118 28.1973 15.8508L30.2029 14.1963C27.0166 10.3339 22.6353 8.1 18.0001 8.1V10.7ZM2.20282 11.4273C6.44256 6.28793 12.1332 3.46467 18 3.46467V0.864673C11.2644 0.864673 4.86874 4.10997 0.197206 9.77272L2.20282 11.4273ZM18 3.46467C23.8669 3.46467 29.5575 6.28793 33.7972 11.4273L35.8028 9.77272C31.1313 4.10997 24.7356 0.864673 18 0.864673V3.46467ZM16.7 15.4V22.6H19.3V15.4H16.7ZM3.60001 25.1H32.4V22.5H3.60001V25.1ZM31.1 23.8V35.8H33.7V23.8H31.1ZM32.4 34.5H3.60001V37.1H32.4V34.5ZM4.90001 35.8V23.8H2.30001V35.8H4.90001Z" fill="#1D1D1D"/>
</svg>
