<svg width="18" height="18" viewBox="0 0 18 18" fill="none" xmlns="http://www.w3.org/2000/svg">
<path fill-rule="evenodd" clip-rule="evenodd" d="M0.75 9C0.75 13.5563 4.44365 17.25 9 17.25C13.5563 17.25 17.25 13.5563 17.25 9C17.25 4.44365 13.5563 0.75 9 0.75C4.44365 0.75 0.75 4.44365 0.75 9ZM15.75 9C15.75 12.7279 12.7279 15.75 9 15.75C5.27208 15.75 2.25 12.7279 2.25 9C2.25 5.27208 5.27208 2.25 9 2.25C12.7279 2.25 15.75 5.27208 15.75 9ZM9.00025 12.7488C9.4146 12.7488 9.75049 12.413 9.75049 11.9988C9.75049 11.5846 9.4146 11.2488 9.00025 11.2488C8.5859 11.2488 8.25 11.5846 8.25 11.9988C8.25 12.413 8.5859 12.7488 9.00025 12.7488ZM8.25 10.5H9.75C9.75 9.90124 9.84406 9.79149 10.4604 9.48332C11.5316 8.94774 12 8.40124 12 7.125C12 5.49047 10.7133 4.5 9 4.5C7.34315 4.5 6 5.84315 6 7.5H7.5C7.5 6.67157 8.17157 6 9 6C9.95787 6 10.5 6.4173 10.5 7.125C10.5 7.72376 10.4059 7.83351 9.78959 8.14168C8.71844 8.67726 8.25 9.22376 8.25 10.5Z" fill="#E5B909"/>
</svg>
