<svg width="32" height="32" viewBox="0 0 32 32" fill="none" xmlns="http://www.w3.org/2000/svg">
<path d="M15.8575 12.4087C18.2184 12.4374 20.0647 13.0886 21.6487 14.3814C22.6274 15.1762 22.7989 16.3541 22.0422 17.1681C21.2754 17.9916 20.0143 18.03 19.0558 17.2543C17.0278 15.6072 14.2835 15.7987 12.7197 17.6948C11.3576 19.3515 11.5191 21.6306 13.1132 23.1054C14.7073 24.5897 17.1691 24.6759 18.8944 23.316C19.1264 23.1341 19.3383 22.9234 19.5905 22.7989C20.4784 22.3488 21.6386 22.6361 22.2037 23.4118C22.7787 24.2066 22.6375 25.2313 21.8001 25.9112C19.6813 27.6541 17.2296 28.3531 14.4651 27.8264C10.5707 27.0987 7.81627 24.0055 7.72547 20.3282C7.63467 16.7276 10.3588 13.4717 14.2028 12.6194C14.8183 12.4662 15.4842 12.447 15.8575 12.4087Z" fill="#1D1D1D"/>
<path d="M13.6482 20.0991C13.6482 18.8255 14.6571 17.8583 15.999 17.8487C17.3712 17.8391 18.37 18.8255 18.3498 20.1662C18.3296 21.3823 17.2904 22.3974 16.0394 22.407C14.6975 22.4357 13.6482 21.4111 13.6482 20.0991Z" fill="#1D1D1D"/>
<path d="M16.1906 4C20.2364 4.07661 23.8787 5.22576 26.9458 7.80177C27.6723 8.40507 27.753 8.98922 27.2283 9.59253C26.744 10.1575 26.0176 10.1863 25.3215 9.6021C23.5558 8.11778 21.4875 7.13143 19.2174 6.69093C14.9193 5.86737 10.924 6.62389 7.37253 9.18075C6.98913 9.45846 6.65619 9.82236 6.22234 9.97558C5.67752 10.1671 5.1327 10.0618 4.7493 9.52549C4.30537 8.91261 4.43653 8.36677 4.95109 7.94541C5.65734 7.36126 6.41404 6.82499 7.20101 6.35576C9.01709 5.28322 11.0249 4.62246 13.0932 4.2011C14.1021 3.99042 15.1615 4.05746 16.1906 4Z" fill="#1D1D1D"/>
<path d="M23.6465 11.0294C21.326 9.20034 18.7129 8.37678 15.8273 8.40551C12.9418 8.38636 10.3286 9.20034 8.00809 11.0294C7.32201 11.5752 7.23121 12.236 7.77603 12.8297C8.12916 13.2128 8.85559 13.433 9.52149 12.9734C9.71318 12.8776 9.91497 12.7531 10.1067 12.6095C11.7714 11.3837 13.6682 10.7613 15.676 10.723C15.7264 10.723 15.7769 10.723 15.8273 10.723C15.8778 10.723 15.9282 10.723 15.9787 10.723C17.9965 10.7613 19.8832 11.3837 21.548 12.6095C21.7497 12.7531 21.9414 12.8776 22.1331 12.9734C22.7889 13.433 23.5255 13.2128 23.8786 12.8297C24.4234 12.236 24.3427 11.5752 23.6465 11.0294Z" fill="#1D1D1D"/>
<path d="M16.0191 12.9915C17.583 12.9245 18.9854 13.4033 20.2566 14.2556C21.0436 14.7823 21.2252 15.4526 20.7813 16.0846C20.2869 16.7837 19.6008 16.9178 18.7533 16.3719C16.8868 15.1653 15.0505 15.1845 13.184 16.3911C12.2861 16.9657 11.6202 16.8316 11.1157 16.0846C10.692 15.4718 10.8937 14.811 11.711 14.2652C12.9923 13.4033 14.4149 12.8957 16.0191 12.9915Z" fill="#1D1D1D"/>
</svg>
