<svg width="85" height="22" viewBox="0 0 85 22" fill="none" xmlns="http://www.w3.org/2000/svg">
<path d="M62.4501 7.82914C64.6501 7.82914 66.7813 7.76039 68.9039 7.84632C70.786 7.92367 72.2555 8.80023 73.218 10.5362C73.218 9.6596 73.218 8.78304 73.218 7.85492C77.1797 7.85492 81.0555 7.85492 85 7.85492C85 8.92054 85 9.99475 85 11.1463C83.6593 11.1463 82.3273 11.1463 80.9008 11.1463C80.9008 14.5408 80.9008 17.858 80.9008 21.2181C79.7234 21.2181 78.6406 21.2181 77.4633 21.2181C77.4633 17.8924 77.4633 14.5752 77.4633 11.2065C76.0625 11.2065 74.7649 11.2065 73.5875 11.2065C73.536 12.358 73.6477 13.4924 73.3985 14.5408C72.8656 16.8096 71.1813 18.0728 68.7665 18.1932C67.8297 18.2361 66.8844 18.2017 65.8618 18.2017C65.8618 19.2502 65.8618 20.2041 65.8618 21.2095C64.693 21.2095 63.593 21.2095 62.4501 21.2095C62.4501 16.758 62.4501 12.3236 62.4501 7.82914ZM65.8876 15.0393C66.8157 15.0393 67.6665 15.0822 68.5172 15.0307C69.4797 14.9619 70.0469 14.283 70.15 13.2002C70.2446 12.2463 69.7547 11.2151 68.9555 11.1033C67.9586 10.9658 66.9188 11.069 65.8876 11.069C65.8876 12.3838 65.8876 13.6643 65.8876 15.0393Z" fill="white"/>
<path d="M9.77964 13.7756C8.96324 16.2592 8.14684 18.7342 7.33044 21.2264C6.1445 21.2264 4.98435 21.2264 3.75545 21.2264C2.50936 16.8006 1.26328 12.3662 0 7.86314C1.24609 7.86314 2.42343 7.86314 3.66952 7.86314C4.36561 10.4155 5.0617 12.985 5.75779 15.5545C5.80076 15.5631 5.85232 15.5631 5.89529 15.5717C6.7031 13.0108 7.5109 10.4584 8.32731 7.86314C9.34996 7.86314 10.3554 7.86314 11.421 7.86314C12.2203 10.3983 13.0281 12.942 13.8273 15.4858C13.8788 15.4944 13.939 15.5029 13.9906 15.5115C14.6867 12.9592 15.3827 10.4155 16.0874 7.84595C17.3077 7.84595 18.4765 7.84595 19.7741 7.84595C18.5194 12.3233 17.2734 16.7576 16.0273 21.2178C14.8156 21.2178 13.6468 21.2178 12.4351 21.2178C11.6187 18.7428 10.7937 16.2592 9.9773 13.7842C9.91714 13.7756 9.84839 13.7756 9.77964 13.7756Z" fill="white"/>
<path d="M49.6625 21.218C48.2274 21.218 46.9125 21.218 45.5461 21.218C44.7211 20.0578 43.879 18.8805 43.0368 17.686C42.4782 17.686 41.9282 17.686 41.3008 17.686C41.3008 18.8547 41.3008 19.9977 41.3008 21.2008C40.1321 21.2008 39.0321 21.2008 37.8719 21.2008C37.8719 16.7664 37.8719 12.3407 37.8719 7.88055C37.8719 7.88055 37.9063 7.82039 37.9407 7.82039C40.4415 7.83758 42.9508 7.70008 45.4258 7.93211C48.1328 8.18992 49.6797 10.4071 49.4133 13.1485C49.2414 14.9274 48.4852 16.3196 46.8008 17.1961C47.7375 18.5196 48.6571 19.8086 49.6625 21.218ZM41.3094 14.4891C42.461 14.4891 43.5696 14.5579 44.6696 14.4719C45.6063 14.3946 46.1047 13.6899 46.0961 12.736C46.0875 11.7735 45.5891 11.0688 44.7297 11.0173C43.604 10.9571 42.4782 11.0001 41.3094 11.0001C41.3094 12.1602 41.3094 13.286 41.3094 14.4891Z" fill="white"/>
<path d="M56.8728 21.2177C55.704 21.2177 54.647 21.2177 53.5041 21.2177C53.5041 19.8771 53.4783 18.5622 53.5126 17.2474C53.5298 16.6458 53.3837 16.1474 53.0572 15.6318C51.433 13.0794 49.8517 10.5013 48.2103 7.86306C49.5853 7.86306 50.8916 7.86306 52.2666 7.86306C53.1947 9.38415 54.1486 10.9568 55.1884 12.6584C56.2111 10.9912 57.1822 9.41852 58.1618 7.83728C59.4853 7.83728 60.8001 7.83728 62.2267 7.83728C61.4618 9.05759 60.7486 10.2091 60.0353 11.3607C59.0814 12.8904 58.1103 14.4115 57.1736 15.9497C57.0017 16.2247 56.9072 16.5857 56.8986 16.9122C56.8556 18.3302 56.8728 19.7396 56.8728 21.2177Z" fill="white"/>
<path d="M30.9033 7.54529C32.9142 7.57107 34.4868 8.15544 35.8361 9.31559C36.6696 10.0289 36.8157 11.0859 36.1712 11.8164C35.5181 12.5554 34.4439 12.5898 33.6275 11.8937C31.9001 10.4156 29.5626 10.5875 28.2306 12.289C27.0705 13.7757 27.208 15.821 28.5658 17.1445C29.9236 18.4765 32.0204 18.5538 33.49 17.3335C33.6876 17.1702 33.8681 16.9812 34.0829 16.8695C34.8392 16.4656 35.8275 16.7234 36.3087 17.4195C36.7985 18.1327 36.6782 19.0523 35.965 19.6624C34.1603 21.2265 32.072 21.8538 29.7173 21.3812C26.4002 20.728 24.0541 17.9523 23.9767 14.6523C23.8994 11.4211 26.2197 8.49919 29.4939 7.73435C30.0181 7.59685 30.5853 7.57966 30.9033 7.54529Z" fill="white"/>
<path d="M19.9548 21.2008C19.9548 16.7234 19.9548 12.3063 19.9548 7.85474C21.0891 7.85474 22.1891 7.85474 23.3579 7.85474C23.3579 12.2977 23.3579 16.7234 23.3579 21.2008C22.2321 21.2008 21.1407 21.2008 19.9548 21.2008Z" fill="white"/>
<path d="M29.021 14.4459C29.021 13.3029 29.8804 12.4349 31.0233 12.4263C32.1921 12.4177 33.0429 13.3029 33.0257 14.506C33.0085 15.5974 32.1233 16.5083 31.0577 16.5169C29.9147 16.5427 29.021 15.6232 29.021 14.4459Z" fill="white"/>
<path d="M31.187 0C34.6331 0.0687497 37.7354 1.1 40.3479 3.4117C40.9667 3.95311 41.0354 4.47732 40.5885 5.01873C40.176 5.52576 39.5573 5.55154 38.9643 5.02732C37.4604 3.6953 35.6987 2.81014 33.7651 2.41483C30.1042 1.67577 26.7011 2.35468 23.6761 4.6492C23.3496 4.89842 23.066 5.22498 22.6964 5.36248C22.2324 5.53435 21.7683 5.43982 21.4417 4.95857C21.0636 4.40858 21.1753 3.91873 21.6136 3.54061C22.2152 3.01639 22.8597 2.53515 23.53 2.11405C25.0769 1.15156 26.787 0.558592 28.5487 0.180468C29.4081 -0.00859319 30.3105 0.0515623 31.187 0Z" fill="#E5B909"/>
<path d="M37.5371 6.30784C35.5606 4.66644 33.3348 3.92738 30.877 3.95317C28.4192 3.93598 26.1934 4.66644 24.2169 6.30784C23.6325 6.79768 23.5552 7.39065 24.0192 7.92346C24.32 8.26721 24.9388 8.46487 25.5059 8.05237C25.6692 7.96643 25.8411 7.85471 26.0044 7.7258C27.4223 6.62581 29.038 6.06722 30.7481 6.03284C30.7911 6.03284 30.834 6.03284 30.877 6.03284C30.92 6.03284 30.9629 6.03284 31.0059 6.03284C32.7247 6.06722 34.3317 6.62581 35.7496 7.7258C35.9215 7.85471 36.0848 7.96643 36.2481 8.05237C36.8067 8.46487 37.434 8.26721 37.7348 7.92346C38.1989 7.39065 38.1301 6.79768 37.5371 6.30784Z" fill="#E5B909"/>
<path d="M31.0406 8.06931C32.3726 8.00915 33.5672 8.43884 34.65 9.20368C35.3203 9.67633 35.475 10.2779 35.0968 10.8451C34.6758 11.4724 34.0914 11.5927 33.3695 11.1029C31.7797 10.0201 30.2156 10.0373 28.6258 11.1201C27.8609 11.6357 27.2938 11.5154 26.8641 10.8451C26.5031 10.2951 26.675 9.70211 27.3711 9.21227C28.4625 8.43884 29.6742 7.98337 31.0406 8.06931Z" fill="#E5B908"/>
</svg>
