<svg width="101" height="26" viewBox="0 0 101 26" fill="none" xmlns="http://www.w3.org/2000/svg">
<path d="M74.0497 9.28331C76.6583 9.28331 79.1854 9.20179 81.7024 9.30369C83.934 9.3954 85.6764 10.4348 86.8177 12.4931C86.8177 11.4538 86.8177 10.4144 86.8177 9.31388C91.5153 9.31388 96.1109 9.31388 100.788 9.31388C100.788 10.5774 100.788 11.8512 100.788 13.2166C99.1985 13.2166 97.619 13.2166 95.9275 13.2166C95.9275 17.2416 95.9275 21.175 95.9275 25.1592C94.5315 25.1592 93.2476 25.1592 91.8515 25.1592C91.8515 21.2157 91.8515 17.2824 91.8515 13.288C90.1906 13.288 88.6519 13.288 87.2559 13.288C87.1947 14.6534 87.3272 15.9985 87.0317 17.2416C86.3999 19.9318 84.4027 21.4297 81.5393 21.5724C80.4286 21.6233 79.3077 21.5826 78.0951 21.5826C78.0951 22.8257 78.0951 23.9568 78.0951 25.149C76.7093 25.149 75.405 25.149 74.0497 25.149C74.0497 19.8706 74.0497 14.6126 74.0497 9.28331ZM78.1257 17.8327C79.2262 17.8327 80.235 17.8836 81.2438 17.8225C82.3851 17.741 83.0576 16.9359 83.1799 15.652C83.292 14.5209 82.7112 13.2981 81.7635 13.1657C80.5815 13.0026 79.3485 13.1249 78.1257 13.1249C78.1257 14.684 78.1257 16.2023 78.1257 17.8327Z" fill="#25356A"/>
<path d="M11.5961 16.3345C10.6281 19.2793 9.66005 22.214 8.69201 25.1691C7.2858 25.1691 5.91016 25.1691 4.453 25.1691C2.97546 19.9213 1.49792 14.6633 0 9.32379C1.47754 9.32379 2.87356 9.32379 4.3511 9.32379C5.17648 12.3502 6.00187 15.397 6.82725 18.4438C6.8782 18.454 6.93934 18.454 6.99029 18.4642C7.94814 15.4276 8.906 12.4011 9.87404 9.32379C11.0866 9.32379 12.2789 9.32379 13.5424 9.32379C14.4901 12.3298 15.4479 15.346 16.3956 18.3623C16.4567 18.3724 16.5281 18.3826 16.5892 18.3928C17.4146 15.3664 18.24 12.3502 19.0755 9.30341C20.5225 9.30341 21.9083 9.30341 23.447 9.30341C21.9593 14.6124 20.4818 19.8704 19.0042 25.1589C17.5674 25.1589 16.1816 25.1589 14.7448 25.1589C13.7768 22.2242 12.7985 19.2793 11.8305 16.3446C11.7592 16.3345 11.6777 16.3345 11.5961 16.3345Z" fill="#25356A"/>
<path d="M58.887 25.1591C57.1853 25.1591 55.6262 25.1591 54.006 25.1591C53.0278 23.7834 52.0292 22.3874 51.0306 20.971C50.3682 20.971 49.7161 20.971 48.9722 20.971C48.9722 22.3568 48.9722 23.7121 48.9722 25.1387C47.5864 25.1387 46.282 25.1387 44.9064 25.1387C44.9064 19.8807 44.9064 14.6329 44.9064 9.3443C44.9064 9.3443 44.9472 9.27297 44.9879 9.27297C47.9532 9.29335 50.9287 9.13031 53.8633 9.40544C57.0732 9.71114 58.9074 12.3401 58.5915 15.5907C58.3877 17.7 57.491 19.3508 55.4937 20.3902C56.6044 21.9594 57.6948 23.4879 58.887 25.1591ZM48.9824 17.1804C50.3478 17.1804 51.6623 17.2619 52.9666 17.16C54.0773 17.0683 54.6684 16.2327 54.6582 15.1016C54.648 13.9603 54.057 13.1248 53.038 13.0636C51.7031 12.9923 50.3682 13.0432 48.9824 13.0432C48.9824 14.4189 48.9824 15.7538 48.9824 17.1804Z" fill="#25356A"/>
<path d="M67.4365 25.1589C66.0507 25.1589 64.7973 25.1589 63.442 25.1589C63.442 23.5692 63.4115 22.0102 63.4522 20.4511C63.4726 19.7378 63.2994 19.1468 62.9122 18.5354C60.9863 15.509 59.1113 12.452 57.1651 9.32372C58.7954 9.32372 60.3443 9.32372 61.9747 9.32372C63.0752 11.1273 64.2063 12.9921 65.4393 15.0097C66.6519 13.0329 67.8033 11.1681 68.965 9.29315C70.5342 9.29315 72.0933 9.29315 73.7848 9.29315C72.8779 10.7401 72.0322 12.1056 71.1864 13.471C70.0553 15.2848 68.9039 17.0884 67.7931 18.9124C67.5893 19.2385 67.4773 19.6665 67.4671 20.0537C67.4161 21.7351 67.4365 23.4062 67.4365 25.1589Z" fill="#25356A"/>
<path d="M36.6433 8.9469C39.0278 8.97747 40.8925 9.67038 42.4923 11.046C43.4808 11.8918 43.654 13.1452 42.8898 14.0113C42.1153 14.8876 40.8416 14.9284 39.8735 14.103C37.8254 12.3503 35.0537 12.5541 33.4743 14.5717C32.0986 16.3346 32.2617 18.7598 33.8717 20.329C35.4817 21.9085 37.968 22.0002 39.7105 20.5532C39.9449 20.3596 40.1589 20.1354 40.4136 20.003C41.3103 19.524 42.4822 19.8297 43.0528 20.6551C43.6336 21.5009 43.491 22.5912 42.6452 23.3147C40.5053 25.1693 38.0292 25.9131 35.2371 25.3527C31.3038 24.5782 28.522 21.2869 28.4302 17.374C28.3385 13.5426 31.0898 10.078 34.9722 9.17108C35.5938 9.00804 36.2663 8.98766 36.6433 8.9469Z" fill="#25356A"/>
<path d="M23.6612 25.1388C23.6612 19.8299 23.6612 14.5922 23.6612 9.31384C25.0063 9.31384 26.3106 9.31384 27.6964 9.31384C27.6964 14.582 27.6964 19.8299 27.6964 25.1388C26.3615 25.1388 25.0674 25.1388 23.6612 25.1388Z" fill="#25356A"/>
<path d="M34.4114 17.1293C34.4114 15.774 35.4304 14.7448 36.7857 14.7346C38.1715 14.7244 39.1803 15.774 39.1599 17.2006C39.1395 18.4947 38.09 19.5749 36.8264 19.585C35.4712 19.6156 34.4114 18.5253 34.4114 17.1293Z" fill="#25356A"/>
<path d="M36.9798 0C41.066 0.0815194 44.7445 1.30431 47.8423 4.0454C48.5759 4.68737 48.6575 5.30895 48.1276 5.95092C47.6385 6.55212 46.9048 6.58269 46.2017 5.96111C44.4185 4.38167 42.3295 3.33211 40.0368 2.86337C35.6959 1.98704 31.6607 2.79204 28.0738 5.51275C27.6866 5.80826 27.3503 6.19548 26.9122 6.35851C26.3619 6.56231 25.8116 6.45023 25.4244 5.87959C24.9761 5.22743 25.1085 4.64661 25.6282 4.19825C26.3415 3.57667 27.1058 3.00603 27.9006 2.50672C29.7348 1.36545 31.7626 0.662346 33.8515 0.213989C34.8705 -0.0101893 35.9404 0.0611396 36.9798 0Z" fill="#E5B909"/>
<path d="M44.5094 7.47946C42.1657 5.53318 39.5265 4.65685 36.6122 4.68742C33.6978 4.66704 31.0586 5.53318 28.715 7.47946C28.022 8.06028 27.9303 8.76339 28.4806 9.39516C28.8372 9.80276 29.5709 10.0371 30.2435 9.54801C30.4371 9.44611 30.6409 9.31364 30.8345 9.16079C32.5158 7.85648 34.4315 7.19414 36.4593 7.15338C36.5103 7.15338 36.5612 7.15338 36.6122 7.15338C36.6631 7.15338 36.7141 7.15338 36.765 7.15338C38.803 7.19414 40.7085 7.85648 42.3898 9.16079C42.5936 9.31364 42.7873 9.44611 42.9809 9.54801C43.6432 10.0371 44.3871 9.80276 44.7437 9.39516C45.294 8.76339 45.2125 8.06028 44.5094 7.47946Z" fill="#E5B909"/>
<path d="M36.8062 9.56811C38.3856 9.49678 39.802 10.0063 41.0859 10.9132C41.8808 11.4736 42.0642 12.1869 41.6158 12.8595C41.1165 13.6033 40.4236 13.746 39.5676 13.1652C37.6825 11.8812 35.8279 11.9016 33.9428 13.1855C33.0359 13.7969 32.3634 13.6543 31.8539 12.8595C31.4259 12.2073 31.6297 11.5042 32.4551 10.9234C33.7492 10.0063 35.186 9.46621 36.8062 9.56811Z" fill="#E5B908"/>
</svg>
